<svg width="32" height="32" viewBox="0 0 32 32" fill="none" xmlns="http://www.w3.org/2000/svg">
<path fill-rule="evenodd" clip-rule="evenodd" d="M16 21C16 20.4477 15.5523 20 15 20C14.4477 20 14 20.4477 14 21C14 22.1046 13.1046 23 12 23C11.4477 23 11 23.4477 11 24C11 24.5523 11.4477 25 12 25C13.1046 25 14 25.8954 14 27C14 27.5523 14.4477 28 15 28C15.5523 28 16 27.5523 16 27C16 25.8954 16.8954 25 18 25C18.5523 25 19 24.5523 19 24C19 23.4477 18.5523 23 18 23C16.8954 23 16 22.1046 16 21ZM15.3542 24C15.2289 23.8894 15.1106 23.7711 15 23.6458C14.8894 23.7711 14.7711 23.8894 14.6458 24C14.7711 24.1106 14.8894 24.2289 15 24.3542C15.1106 24.2289 15.2289 24.1106 15.3542 24Z" fill="black"/>
<path fill-rule="evenodd" clip-rule="evenodd" d="M23 12C23 11.4477 22.5523 11 22 11C21.4477 11 21 11.4477 21 12C21 14.2091 19.2091 16 17 16C16.4477 16 16 16.4477 16 17C16 17.5523 16.4477 18 17 18C19.2091 18 21 19.7909 21 22C21 22.5523 21.4477 23 22 23C22.5523 23 23 22.5523 23 22C23 19.7909 24.7909 18 27 18C27.5523 18 28 17.5523 28 17C28 16.4477 27.5523 16 27 16C24.7909 16 23 14.2091 23 12ZM22 15.3178C21.5569 15.9842 20.9842 16.5569 20.3178 17C20.9842 17.4431 21.5569 18.0158 22 18.6822C22.4431 18.0158 23.0158 17.4431 23.6822 17C23.0158 16.5569 22.4431 15.9842 22 15.3178Z" fill="black"/>
<path fill-rule="evenodd" clip-rule="evenodd" d="M12 5C12 4.44772 11.5523 4 11 4C10.4477 4 10 4.44772 10 5C10 7.76142 7.76142 10 5 10C4.44772 10 4 10.4477 4 11C4 11.5523 4.44772 12 5 12C7.76142 12 10 14.2386 10 17C10 17.5523 10.4477 18 11 18C11.5523 18 12 17.5523 12 17C12 14.2386 14.2386 12 17 12C17.5523 12 18 11.5523 18 11C18 10.4477 17.5523 10 17 10C14.2386 10 12 7.76142 12 5ZM11 8.60758C10.4099 9.58687 9.58687 10.4099 8.60758 11C9.58687 11.5901 10.4099 12.4131 11 13.3924C11.5901 12.4131 12.4131 11.5901 13.3924 11C12.4131 10.4099 11.5901 9.58688 11 8.60758Z" fill="black"/>
</svg>
